<?xml version="1.0" standalone="no"?>
<!DOCTYPE svg PUBLIC "-//W3C//DTD SVG 1.1//EN" "http://www.w3.org/Graphics/SVG/1.1/DTD/svg11.dtd" >
<svg xmlns="http://www.w3.org/2000/svg" xmlns:xlink="http://www.w3.org/1999/xlink" version="1.1">
<metadata>
Created by FontForge 20170731 at Fri Jun 23 10:27:48 2023
 By Aleksey,,,
Copyright (c) 2023 James Hultquist-Todd.
</metadata>
<defs>
<font id="Transducer-Medium" horiz-adv-x="1396" >
  <font-face 
    font-family="Transducer Test Medium"
    font-weight="500"
    font-stretch="normal"
    units-per-em="2048"
    panose-1="0 0 0 0 0 0 0 0 0 0"
    ascent="1638"
    descent="-410"
    x-height="1192"
    cap-height="1454"
    bbox="-33 -311 2296 1544"
    underline-thickness="102"
    underline-position="-307"
    unicode-range="U+0020-007A"
  />
<missing-glyph horiz-adv-x="1146" 
 />
    <glyph glyph-name=".notdef" horiz-adv-x="1146" 
 />
    <glyph glyph-name=".null" horiz-adv-x="0" 
 />
    <glyph glyph-name="nonmarkingreturn" horiz-adv-x="682" 
 />
    <glyph glyph-name="space" unicode=" " horiz-adv-x="569" 
 />
    <glyph glyph-name="comma" unicode="," horiz-adv-x="555" 
d="M129 283h297v-279l-80 -252h-188l49 164q23 62 29 84q-95 0 -107 -2v285z" />
    <glyph glyph-name="hyphen" unicode="-" horiz-adv-x="886" 
d="M88 780h711v-221h-711v221z" />
    <glyph glyph-name="period" unicode="." horiz-adv-x="550" 
d="M129 279h293v-279h-293v279z" />
    <glyph glyph-name="zero" unicode="0" horiz-adv-x="1546" 
d="M772 -29q-189 0 -312 34.5t-203.5 119.5t-114 221.5t-33.5 347.5v66q0 211 33.5 347.5t114 221.5t203.5 119.5t312 34.5q126 0 221 -15t171 -49.5t126.5 -88.5t84.5 -136t48.5 -187.5t14.5 -246.5v-66q0 -141 -14.5 -246.5t-48.5 -187.5t-84.5 -136t-126.5 -88.5
t-171 -49.5t-221 -15zM772 195q124 0 200 22t126 82t69 158.5t19 259.5v20q0 104 -8.5 180.5t-28.5 136t-50.5 98t-78 63.5t-107 35t-141.5 10q-122 0 -199 -24t-126.5 -85t-69 -159.5t-19.5 -254.5v-20q0 -129 13 -216t41 -148.5t78 -95t116.5 -48t165.5 -14.5z" />
    <glyph glyph-name="one" unicode="1" horiz-adv-x="1064" 
d="M635 274v949h-55q-18 -17 -65.5 -61t-74.5 -70l-393 -375l-4 4v299q51 46 131.5 122t185.5 177.5t140 134.5h383q-2 -76 -2 -262v-916q0 -194 2 -276h-250q2 96 2 274z" />
    <glyph glyph-name="two" unicode="2" horiz-adv-x="1398" 
d="M1292 0h-1188v328q0 70 7 116.5t29 90.5t59.5 72.5t101.5 55t151.5 45.5t213.5 37q98 14 163.5 31t108 38t64.5 53t30 67.5t8 89.5v6q0 68 -14.5 111t-53 73t-105 42t-171.5 12q-194 0 -269 -52.5t-75 -181.5v-55l-243 6v37q-2 129 24.5 213t93.5 141.5t180.5 82
t288.5 24.5q229 0 357.5 -44.5t182.5 -140.5t54 -266v-8q0 -82 -9.5 -141.5t-35 -111t-66 -87t-105.5 -64.5t-151.5 -49t-205.5 -36q-126 -18 -195.5 -34.5t-110.5 -43.5t-52 -59t-11 -89v-96h549q311 0 395 2v-215z" />
    <glyph glyph-name="three" unicode="3" horiz-adv-x="1394" 
d="M1294 385q0 -156 -51.5 -243t-182 -129t-368.5 -42q-129 0 -219.5 8.5t-159 31t-110 55.5t-67 87.5t-35 120.5t-9.5 162l244 6v-30q0 -87 27 -133t104 -69.5t225 -23.5q110 0 179 11.5t108.5 40t53.5 68t14 102.5v4q0 86 -33.5 133t-111.5 67.5t-222 20.5h-180v209h174
q135 0 212 23.5t106.5 67.5t29.5 120v8q0 77 -26.5 120t-99 66t-204.5 23q-87 0 -147.5 -8t-100 -23.5t-61.5 -42.5t-30.5 -60t-8.5 -81v-33l-244 6q-1 85 8.5 147.5t35 115.5t68.5 87.5t109.5 59t157.5 35t213 10.5q140 0 239.5 -15.5t165.5 -45t104 -79.5t53.5 -111
t15.5 -147v-8q0 -127 -54 -209t-176 -125q138 -39 196 -123t58 -227v-8z" />
    <glyph glyph-name="four" unicode="4" horiz-adv-x="1427" 
d="M78 295v262q446 615 635 897h436q-2 -72 -2 -256v-690q143 0 211 2v-215h-211v-21q0 -178 2 -274h-250q2 82 2 272v23h-188h-635zM905 727q0 107 1 277t1 229h-80l-524 -729h363h239v223z" />
    <glyph glyph-name="five" unicode="5" horiz-adv-x="1409" 
d="M1239 1454v-207h-870v-403q42 67 134.5 102t262.5 35q295 0 418 -113.5t123 -384.5v-8q0 -191 -58.5 -299t-189.5 -156.5t-363 -48.5q-122 0 -211 10.5t-155.5 35t-108 60t-66.5 91.5t-34 122.5t-8 158.5v2l243 6q0 -80 14.5 -129t54 -82t104 -45.5t169.5 -12.5
q210 0 283.5 60t73.5 227v8q0 115 -31.5 175.5t-107 87t-218.5 26.5q-179 0 -256.5 -35t-79.5 -110l-239 6q4 92 4 551q0 215 -2 270h1114z" />
    <glyph glyph-name="six" unicode="6" horiz-adv-x="1515" 
d="M760 -29q-184 0 -304.5 34.5t-200 119t-113 221t-33.5 346.5v68q0 211 33.5 347.5t113 221.5t200 119.5t304.5 34.5q182 0 297 -20.5t184.5 -70t96 -122.5t26.5 -189l-248 -6q0 51 -13.5 85t-51 60.5t-109 39t-182.5 12.5q-118 0 -195 -28.5t-123 -93.5t-65 -158.5
t-19 -233.5q59 100 178 151.5t330 51.5q289 0 415 -114t126 -376v-8q0 -264 -147 -378t-500 -114zM760 182q105 0 174.5 12.5t119 44.5t71.5 87t22 139v8q0 158 -79 220.5t-286 62.5q-223 0 -321.5 -62.5t-98.5 -218.5v-8q0 -155 94 -220t304 -65z" />
    <glyph glyph-name="seven" unicode="7" horiz-adv-x="1271" 
d="M49 1454h1151v-313q-380 -671 -637 -1141h-268l-4 2q119 207 342.5 604t318.5 563v72h-288q-451 0 -615 -2v215z" />
    <glyph glyph-name="eight" unicode="8" horiz-adv-x="1435" 
d="M717 -29q-182 0 -301.5 23.5t-189.5 76.5t-98 127.5t-28 186.5v8q0 144 58 227t202 121q-135 42 -191 124t-56 212v8q0 86 15.5 147t55 111t108 79.5t173 45t252.5 15.5t253 -15.5t173.5 -45t108.5 -79.5t55.5 -111t15.5 -147v-8q0 -128 -59 -210.5t-197 -125.5
q146 -39 207 -122t61 -226v-8q0 -90 -16 -153.5t-56 -115.5t-110 -82.5t-177 -46.5t-259 -16zM717 844q145 0 221.5 21t105.5 64t29 122v8q0 81 -27 124.5t-105 66t-224 22.5t-223.5 -22.5t-104.5 -66t-27 -124.5v-8q0 -116 75.5 -161.5t279.5 -45.5zM717 184
q115 0 187.5 12.5t112.5 42t54 68t14 99.5v4q0 88 -30.5 134t-108.5 66.5t-229 20.5q-214 0 -291.5 -46.5t-77.5 -174.5v-4q0 -81 27.5 -126.5t109 -70.5t232.5 -25z" />
    <glyph glyph-name="nine" unicode="9" horiz-adv-x="1515" 
d="M756 1483q184 0 304 -34.5t199.5 -119t113.5 -221t34 -346.5v-68q0 -210 -34 -347.5t-113.5 -222t-199.5 -119t-304 -34.5q-182 0 -297.5 20.5t-185 70t-96 123t-25.5 188.5l245 6q0 -51 14 -85t51.5 -60.5t109.5 -39t184 -12.5q117 0 194 28.5t122.5 93.5t64 158
t18.5 234q-57 -99 -176 -150.5t-332 -51.5q-288 0 -413 113.5t-125 375.5v8q0 264 147 378t500 114zM756 1272q-211 0 -300 -60t-89 -223v-8q0 -158 79 -220.5t287 -62.5q222 0 320 62.5t98 218.5v8q0 156 -93 220.5t-302 64.5z" />
    <glyph glyph-name="A" unicode="A" horiz-adv-x="1529" 
d="M575 1454h396q86 -247 271 -752.5t263 -701.5h-280l-105 309h-717l-110 -309h-268q79 199 270.5 706.5t279.5 747.5zM541 698l-62 -176h568l-62 180q-150 448 -174 521h-90q-151 -445 -180 -525z" />
    <glyph glyph-name="B" unicode="B" horiz-adv-x="1566" 
d="M184 272v916q0 188 -2 266h785q267 0 376 -87t109 -284v-6q0 -131 -54 -213t-181 -123q142 -39 202 -122t60 -232v-8q0 -204 -111.5 -291.5t-374.5 -87.5h-811q2 78 2 272zM940 1245h-506v-407h506q140 0 197 45.5t57 152.5v8q0 112 -56.5 156.5t-197.5 44.5zM952 633
h-518v-424h531q144 0 200 44t56 169v4q0 118 -58.5 162.5t-210.5 44.5z" />
    <glyph glyph-name="C" unicode="C" horiz-adv-x="1560" 
d="M786 -29q-195 0 -322 34.5t-210 119.5t-117.5 221.5t-34.5 347.5v66q0 211 34.5 347.5t117.5 221.5t210 119.5t322 34.5t321.5 -28t207.5 -97t114 -177.5t33 -275.5l-245 -6q0 108 -17 172.5t-65 107.5t-128.5 59.5t-213.5 16.5q-132 0 -213 -23t-132.5 -84t-70.5 -157.5
t-19 -253.5v-20q0 -107 8 -183.5t29 -136t52 -96.5t81.5 -60.5t113 -32.5t151.5 -9q132 0 213 16.5t129.5 59.5t66 108t17.5 172l243 -6q1 -133 -21 -228t-69 -163.5t-127.5 -109t-191.5 -59t-267 -18.5z" />
    <glyph glyph-name="D" unicode="D" horiz-adv-x="1609" 
d="M184 279v909q0 188 -2 266h631q199 0 328 -34t213.5 -117.5t119.5 -218t35 -341.5v-32q0 -207 -35 -341.5t-119.5 -218t-213.5 -117.5t-328 -34h-631q2 80 2 279zM813 1233h-379v-1012h379q135 0 216.5 21t133.5 79t71 150.5t19 245.5v20q0 153 -19 245.5t-71 150.5
t-133.5 79t-216.5 21z" />
    <glyph glyph-name="E" unicode="E" horiz-adv-x="1394" 
d="M184 272v916q0 188 -2 266h1082v-219q-143 2 -650 2h-180v-389h746v-213q-117 2 -551 2h-195v-420h184q523 0 687 2v-219h-1123q2 78 2 272z" />
    <glyph glyph-name="F" unicode="F" horiz-adv-x="1316" 
d="M184 272v916q0 188 -2 266h1057v-221q-143 2 -532 2h-273v-414h713v-217q-133 2 -606 2h-107v-336q0 -190 2 -270h-254q2 80 2 272z" />
    <glyph glyph-name="G" unicode="G" horiz-adv-x="1562" 
d="M791 -29q-157 0 -268.5 22.5t-194.5 72t-131.5 135t-71.5 205t-23 288.5v66q0 211 34.5 347.5t117.5 221.5t210 119.5t322 34.5q157 0 267.5 -16t191 -51t127.5 -95t68.5 -143t21.5 -201l-245 -4q-1 69 -12 114t-37.5 79.5t-75.5 53t-120 27t-177 8.5q-88 0 -152 -10
t-114 -34t-81.5 -61.5t-52.5 -97t-29 -135t-8 -180.5v-20q0 -130 13 -217t41.5 -148.5t81.5 -94.5t124 -47.5t179 -14.5q93 0 155 5t112 20.5t78 39t46.5 65t25 94t5.5 130.5h-519v205h764q-2 -68 -2 -191q0 -121 -13.5 -209t-47 -155.5t-82.5 -110t-127 -69.5t-173.5 -37.5
t-227.5 -10.5z" />
    <glyph glyph-name="H" unicode="H" horiz-adv-x="1656" 
d="M182 0q2 80 2 272v916q0 186 -2 266h254q-2 -80 -2 -270v-322h789v326q0 186 -2 266h254q-2 -80 -2 -270v-914q0 -190 2 -270h-254q2 80 2 272v367h-789v-369q0 -190 2 -270h-254z" />
    <glyph glyph-name="I" unicode="I" horiz-adv-x="622" 
d="M184 272v916q0 186 -2 266h260q-2 -80 -2 -270v-914q0 -190 2 -270h-260q2 80 2 272z" />
    <glyph glyph-name="J" unicode="J" horiz-adv-x="1378" 
d="M1219 1454q-2 -70 -2 -266v-156q0 -57 1 -200.5t1 -231.5q0 -124 -10 -213t-36 -162t-67 -119t-106.5 -77.5t-151 -44.5t-203.5 -13q-116 0 -198 11t-148 39.5t-107 73.5t-68.5 118t-38.5 167t-11 226v21l252 4v-21q-1 -106 6.5 -173.5t27 -116.5t58 -74t91.5 -36
t136 -11q69 0 116.5 6.5t84.5 25t59 46.5t36 76.5t19 108.5t5 148v578q0 190 -2 266h256z" />
    <glyph glyph-name="K" unicode="K" horiz-adv-x="1521" 
d="M184 272v916q0 186 -2 266h254q-2 -80 -2 -270v-332h189q139 172 225 266l307 336h307l4 -4q-424 -448 -645 -692q304 -343 680 -754l-2 -4h-321l-344 389q-125 148 -203 244h-197v-363q0 -190 2 -270h-254q2 80 2 272z" />
    <glyph glyph-name="L" unicode="L" horiz-adv-x="1308" 
d="M1235 0h-1053q2 80 2 281v903q0 190 -2 270h254q-2 -78 -2 -264v-963h342q295 0 459 2v-229z" />
    <glyph glyph-name="M" unicode="M" horiz-adv-x="2045" 
d="M182 0q2 96 2 276v910q0 190 -2 268h453l225 -643q77 -223 178 -539q142 428 181 541l223 641h422q-2 -78 -2 -258v-915q0 -199 2 -281h-256q2 162 2 559q0 43 6 670h-35q-32 -92 -99.5 -291.5t-92.5 -273.5l-234 -664h-250l-243 662q-163 454 -201 567h-37
q6 -276 6 -686q0 -379 2 -543h-250z" />
    <glyph glyph-name="N" unicode="N" horiz-adv-x="1662" 
d="M182 0q2 96 2 270v916q0 174 -2 268h410l334 -629q97 -191 293 -594h26q-6 615 -6 656q0 405 -2 567h244q-2 -78 -2 -262v-916q0 -180 2 -276h-394l-327 610q-249 474 -320 615h-22q0 -15 4 -281t4 -391q0 -389 2 -553h-246z" />
    <glyph glyph-name="O" unicode="O" horiz-adv-x="1605" 
d="M803 -29q-161 0 -274.5 22.5t-198 72t-133.5 135t-72 205t-23 288.5v66q0 169 23 288.5t72 205t133.5 135t198 72t274.5 22.5q202 0 332 -34.5t215 -119.5t120 -221.5t35 -347.5v-66q0 -211 -35 -347.5t-120 -221.5t-215 -119.5t-332 -34.5zM803 199q92 0 156.5 9
t116 32.5t83.5 60.5t53 96.5t29 135.5t8 184v20q0 108 -8 184t-29 135.5t-53 96.5t-83.5 60.5t-116 32.5t-156.5 9q-109 0 -182 -15.5t-126 -49t-82 -95.5t-42 -147t-13 -211v-20q0 -161 19 -258t72 -157t135 -81.5t219 -21.5z" />
    <glyph glyph-name="P" unicode="P" horiz-adv-x="1513" 
d="M434 274q0 -176 2 -274h-254q2 96 2 274v916q0 174 -2 264h754q274 0 388 -111.5t114 -373.5v-8q0 -264 -115 -380t-387 -116q-83 0 -256.5 1t-245.5 1v-193zM913 1237h-479v-551h479q146 0 205.5 60t59.5 215v4q0 155 -59 213.5t-206 58.5z" />
    <glyph glyph-name="Q" unicode="Q" horiz-adv-x="1609" 
d="M803 -29q-161 0 -274.5 22.5t-198 72t-133.5 135t-72 205t-23 288.5v66q0 169 23 288.5t72 205t133.5 135t198 72t274.5 22.5q202 0 332 -34.5t215 -119.5t120 -221.5t35 -347.5v-66q0 -247 -51 -393l154 -72v-256l-2 -2l-164 80q-18 8 -56.5 26.5t-56.5 26.5
q-82 -70 -209.5 -101.5t-316.5 -31.5zM803 199q238 0 330 77l-246 115v248l2 2l174 -86q24 -12 83 -41t85 -43q18 99 18 246v20q0 108 -8 184t-29 135.5t-53 96.5t-83.5 60.5t-116 32.5t-156.5 9q-109 0 -182 -15.5t-126 -49t-82 -95.5t-42 -147t-13 -211v-20
q0 -161 19 -258t72 -157t135 -81.5t219 -21.5z" />
    <glyph glyph-name="R" unicode="R" horiz-adv-x="1546" 
d="M184 272v916q0 188 -2 266h766q273 0 386.5 -100.5t113.5 -352.5v-8q0 -185 -69 -288t-236 -140q56 -91 135 -229q89 -154 205 -336h-295q-27 48 -146 252l-159 270h-449v-252q0 -192 2 -270h-254q2 78 2 272zM926 1237h-492v-496h490q144 0 204 58.5t60 195.5v4
q0 134 -59 186t-203 52z" />
    <glyph glyph-name="S" unicode="S" horiz-adv-x="1507" 
d="M786 -29q-142 0 -242 7.5t-179 27.5t-127.5 51t-80 81.5t-43.5 114.5t-12 155v38l248 7v-50q0 -56 11 -91t36 -60.5t77 -38t123 -18t185 -5.5q158 0 238.5 19t108.5 57.5t28 114.5q0 44 -9.5 73t-35.5 56t-76.5 46t-129.5 36.5t-197 32.5q-125 16 -214 33.5t-157 43.5
t-109.5 56.5t-68 76t-36 98t-9.5 126.5q0 114 29 191t99 131t187 78t293 24q157 0 266 -15t182 -44.5t113.5 -80.5t57 -115t16.5 -157v-37l-246 -6v47q0 75 -33.5 115.5t-117 59t-238.5 18.5q-141 0 -219 -21.5t-105.5 -60t-27.5 -105.5q0 -45 8 -73t31.5 -53.5t72 -42
t122.5 -31.5t190 -29q190 -24 309.5 -58.5t187.5 -90.5t92.5 -125.5t24.5 -176.5q0 -98 -17 -165.5t-57.5 -120.5t-112.5 -83.5t-178 -45.5t-258 -15z" />
    <glyph glyph-name="T" unicode="T" horiz-adv-x="1497" 
d="M623 272v955h-201q-183 0 -363 -2v229h1379v-229q-156 2 -351 2h-213v-957q0 -150 3 -270h-256q2 80 2 272z" />
    <glyph glyph-name="U" unicode="U" horiz-adv-x="1650" 
d="M1485 1454q-2 -70 -2 -266v-156q0 -46 1 -192t1 -248q0 -234 -62 -367t-204 -193.5t-394 -60.5q-251 0 -393 60.5t-204 193.5t-62 367q0 102 1 248t1 192v154q0 196 -2 268h254q-2 -76 -2 -268v-580q0 -125 18.5 -201t67 -123.5t123.5 -65t198 -17.5t198 17.5t124 65
t67.5 124t18.5 200.5v586q0 188 -2 262h254z" />
    <glyph glyph-name="V" unicode="V" horiz-adv-x="1529" 
d="M954 0h-395q-80 230 -267 739.5t-267 714.5h278l242 -702q150 -448 174 -521h90q15 43 78.5 231t99.5 294l248 698h270q-78 -192 -267 -693.5t-284 -760.5z" />
    <glyph glyph-name="W" unicode="W" horiz-adv-x="2320" 
d="M1016 694l-185 -694h-360q-62 214 -218 723t-228 731h280l199 -725q28 -104 74 -279.5t57 -218.5h53q37 160 123 506l184 717h346l175 -702q24 -100 66 -278t58 -243h41q23 77 142 498l205 725h268q-84 -254 -242.5 -752.5t-218.5 -701.5h-360l-175 694q-91 373 -135 561
h-4q-64 -261 -145 -561z" />
    <glyph glyph-name="X" unicode="X" horiz-adv-x="1533" 
d="M29 0q219 289 530 727q-346 493 -522 727h313l223 -324q155 -237 191 -294q112 173 188 286l234 332h297q-154 -202 -527 -721q351 -480 549 -733h-313l-223 309q-34 48 -69 99.5t-82.5 122.5t-65.5 98q-125 -194 -201 -303l-225 -326h-297z" />
    <glyph glyph-name="Y" unicode="Y" horiz-adv-x="1509" 
d="M629 293v188q-239 392 -615 973h295l269 -440q53 -87 184 -314q106 186 178 304l272 450h283q-274 -424 -616 -971v-190q0 -203 2 -293h-254q2 88 2 293z" />
    <glyph glyph-name="Z" unicode="Z" horiz-adv-x="1431" 
d="M590 221q573 0 737 2v-223h-1225v305l531 512q158 150 430 395v23q-141 -2 -365 -2q-423 0 -587 -2v223h1202v-299l-510 -485q-48 -45 -139 -131t-167.5 -156.5t-146.5 -134.5v-27h240z" />
    <glyph glyph-name="a" unicode="a" horiz-adv-x="1357" 
d="M565 -25q-250 0 -349 86.5t-99 290.5q0 207 101.5 296t348.5 89q275 0 385 -119v136q0 146 -60 200t-230 54q-111 0 -166.5 -17.5t-75 -53t-19.5 -106.5l-233 7q-3 201 109.5 290t388.5 89q157 0 260.5 -24t163.5 -76.5t84 -125.5t24 -182q0 -78 -1 -200.5t-1 -219.5
q0 -227 2 -389h-221l-4 147q-110 -172 -408 -172zM659 172q173 0 236 41.5t63 142.5v52q0 78 -64 114.5t-230 36.5q-123 0 -187.5 -21t-87 -62t-22.5 -118q0 -106 63 -146t229 -40z" />
    <glyph glyph-name="b" unicode="b" 
d="M168 274v983q0 185 -2 275h250q-2 -84 -2 -516q112 201 397 201q133 0 222 -27.5t151.5 -95t90.5 -181.5t28 -286v-62q0 -172 -28.5 -286t-92.5 -181.5t-155 -95t-228 -27.5q-294 0 -400 228l-4 -203h-229q2 80 2 274zM412 586q0 -119 15.5 -193t54 -118t95 -60
t146.5 -16q132 0 201 32.5t100 115t31 241.5v16q0 120 -15.5 194t-55 118.5t-98.5 60.5t-155 16q-94 0 -152 -16t-97 -60t-54.5 -118t-15.5 -193v-20z" />
    <glyph glyph-name="c" unicode="c" horiz-adv-x="1290" 
d="M655 -25q-156 0 -258.5 28t-171.5 96.5t-99 181t-30 284.5v62q0 172 29.5 284.5t98.5 181t171.5 96.5t259.5 28q156 0 258 -24.5t167 -84t92.5 -153t27.5 -236.5l-239 -8q0 156 -66.5 221t-237.5 65q-74 0 -124.5 -10.5t-89 -35.5t-59.5 -71t-31.5 -112.5t-10.5 -163.5
v-16q0 -121 15 -195.5t53.5 -119.5t96 -61.5t150.5 -16.5q173 0 240.5 64.5t67.5 221.5l239 -6q0 -275 -123 -387.5t-426 -112.5z" />
    <glyph glyph-name="d" unicode="d" 
d="M588 -25q-133 0 -222 27.5t-151.5 95t-90.5 181.5t-28 286v62q0 172 28 285.5t91.5 181.5t154.5 95.5t228 27.5q274 0 387 -197q-4 418 -4 512h250q-2 -72 -2 -277v-981q0 -194 2 -274h-227l-5 205q-109 -230 -411 -230zM666 199q94 0 152 16t97.5 60t55.5 118t16 193v20
q0 119 -15.5 193.5t-54.5 118t-95 59.5t-146 16q-99 0 -160 -16.5t-101.5 -61t-56.5 -118.5t-16 -193v-16q0 -119 15.5 -193t55.5 -118.5t99 -61t154 -16.5z" />
    <glyph glyph-name="e" unicode="e" horiz-adv-x="1300" 
d="M668 -25q-159 0 -264 28t-176 96.5t-101.5 181t-30.5 284.5v62q0 171 30.5 284t100 181.5t172 96.5t256.5 28q155 0 256 -28t169 -96.5t97 -181t29 -284.5v-105h-862q4 -100 22.5 -163.5t58.5 -102t97.5 -53.5t147.5 -15q120 0 185 23.5t87.5 67.5t22.5 124l241 -8
q0 -117 -25 -193.5t-87 -129t-165 -75t-261 -22.5zM657 1020q-166 0 -234.5 -65t-78.5 -250h606q-4 128 -32.5 195t-88.5 93.5t-172 26.5z" />
    <glyph glyph-name="f" unicode="f" horiz-adv-x="704" 
d="M207 670v280h-184l8 211h174v41q0 124 29.5 192t91 98.5t176.5 39.5q85 8 190 12l6 -201q-57 0 -135 -8q-71 -8 -91.5 -35.5t-20.5 -119.5v-19h221v-211h-221v-682q0 -176 2 -268h-248q2 162 2 670z" />
    <glyph glyph-name="g" unicode="g" 
d="M600 133q-106 0 -182 14t-140 49t-102 95t-59 153t-21 222v18q0 129 20.5 221.5t59 153t102 95.5t140 49t182.5 14q290 0 399 -207l5 182h227q-2 -78 -2 -262v-316q0 -99 1 -246t1 -223q0 -254 -131.5 -355t-456.5 -101q-128 0 -213.5 11t-146 34.5t-93 68t-46.5 105
t-15 151.5l233 9q0 -67 20 -102t81 -53.5t180 -18.5q141 0 213.5 25t102.5 84t32 175l2 156q-112 -201 -393 -201zM670 348q175 0 246 72t71 264q0 96 -16.5 157.5t-57 97t-97.5 49t-148 13.5q-183 0 -254.5 -68.5t-71.5 -248.5v-16q0 -181 72 -250.5t256 -69.5z" />
    <glyph glyph-name="h" unicode="h" horiz-adv-x="1394" 
d="M172 272v983q0 187 -2 277h250q0 -141 -12 -522q57 111 157 159t256 48q218 0 315 -95.5t97 -320.5q0 -18 -1 -112.5t-1 -186.5v-238q0 -166 2 -264h-246q2 96 2 266v393q0 137 -26.5 208.5t-84.5 98.5t-169 27q-85 0 -136.5 -14.5t-89 -56t-52.5 -114.5t-15 -192v-344
q0 -172 2 -272h-248q2 98 2 272z" />
    <glyph glyph-name="i" unicode="i" horiz-adv-x="587" 
d="M170 1520h248v-203h-248v203zM172 276v639q0 203 -2 277h248q-2 -74 -2 -274v-639q0 -195 2 -279h-248q2 82 2 276z" />
    <glyph glyph-name="j" unicode="j" horiz-adv-x="606" 
d="M188 1520h248v-203h-248v203zM434 573q0 -101 1 -291t1 -235q0 -124 -28 -193t-89.5 -101.5t-175.5 -41.5q-109 -8 -174 -8l-2 217q78 0 117 6q67 7 86.5 38t19.5 124v830q0 184 -2 274h248q0 -35 -1 -126.5t-1 -145.5v-347z" />
    <glyph glyph-name="k" unicode="k" horiz-adv-x="1259" 
d="M172 276v979q0 203 -2 277h248q-2 -74 -2 -275v-544h133q71 97 156 200l227 279h293l2 -4q-196 -222 -484 -570q44 -53 157.5 -191t198 -238.5t158.5 -184.5l-2 -4h-299l-260 319q-73 88 -139 179h-141v-219q0 -197 2 -279h-248q2 82 2 276z" />
    <glyph glyph-name="l" unicode="l" horiz-adv-x="587" 
d="M172 276v979q0 203 -2 277h248q-2 -74 -2 -275v-978q0 -195 2 -279h-248q2 82 2 276z" />
    <glyph glyph-name="m" unicode="m" horiz-adv-x="2168" 
d="M168 270v666q0 172 -2 256h229l4 -203q53 115 152 171.5t254 56.5q169 0 262.5 -54.5t126.5 -177.5q105 232 410 232q219 0 311 -94.5t92 -321.5q0 -23 -1 -143t-1 -224v-155q0 -168 2 -279h-248q2 90 2 274v402q0 97 -13.5 158t-46 96.5t-79.5 49t-123 13.5
q-83 0 -134 -14.5t-89 -55.5t-54 -115t-16 -192v-342q0 -163 2 -274h-245q2 90 2 276v400q0 128 -27 196.5t-82 94.5t-156 26q-82 0 -133 -14.5t-88 -56t-52 -115t-15 -191.5v-352q0 -176 2 -264h-248q2 90 2 270z" />
    <glyph glyph-name="n" unicode="n" horiz-adv-x="1390" 
d="M168 270v666q0 172 -2 256h229l4 -195q54 118 155.5 169t262.5 51q218 0 315 -95.5t97 -320.5q0 -17 -1 -117.5t-1 -200.5v-217q0 -166 2 -266h-246q2 92 2 266v393q0 137 -26.5 208.5t-84.5 98.5t-169 27q-85 0 -136.5 -14.5t-89 -56t-52.5 -114.5t-15 -192v-352
q0 -176 2 -264h-248q2 90 2 270z" />
    <glyph glyph-name="o" unicode="o" horiz-adv-x="1329" 
d="M664 -25q-159 0 -263.5 28t-174.5 96.5t-100 181t-30 284.5v62q0 172 30 284.5t100 181t174.5 96.5t263.5 28q160 0 264.5 -28t174.5 -96.5t100 -181t30 -284.5v-62q0 -172 -30 -284.5t-100 -181t-174.5 -96.5t-264.5 -28zM664 195q128 0 195 32.5t97.5 116.5t30.5 244
v16q0 161 -30.5 245t-97.5 116t-195 32q-95 0 -153.5 -16t-98 -61t-55 -120t-15.5 -196v-16q0 -97 10.5 -163t32 -112t61 -71.5t91 -36t127.5 -10.5z" />
    <glyph glyph-name="p" unicode="p" 
d="M168 -2v926q0 180 -2 268h229l4 -205q106 230 412 230q133 0 222 -27.5t151.5 -95t90.5 -181.5t28 -286v-62q0 -172 -28.5 -286t-92.5 -181.5t-155 -95t-228 -27.5q-276 0 -385 199q0 -377 2 -461h-250q2 61 2 285zM412 586q0 -119 15.5 -193t54 -118t95 -60t146.5 -16
q132 0 201 32.5t100 115t31 241.5v16q0 120 -15.5 194t-55 118.5t-98.5 60.5t-155 16q-94 0 -152 -16t-97 -60t-54.5 -118t-15.5 -193v-20z" />
    <glyph glyph-name="q" unicode="q" 
d="M598 -25q-137 0 -228 27.5t-154.5 95.5t-91.5 181.5t-28 285.5v62q0 172 28 286t90.5 181.5t151.5 95t222 27.5q302 0 411 -230l5 205h227q-2 -88 -2 -268v-926q0 -224 2 -285h-248q2 90 2 461q-112 -199 -387 -199zM676 199q90 0 146 16.5t94.5 60t54.5 118t16 192.5v20
q0 119 -16 193t-55.5 118t-97.5 60t-152 16q-95 0 -154 -16t-99 -60.5t-55.5 -118.5t-15.5 -194v-16q0 -119 16 -193t56.5 -118.5t101.5 -61t160 -16.5z" />
    <glyph glyph-name="r" unicode="r" horiz-adv-x="1157" 
d="M168 270v666q0 172 -2 256h229l4 -201q98 226 359 226q186 0 256.5 -79t70.5 -286q0 -117 -2 -170l-231 -4v119q0 116 -39.5 156t-159.5 40q-51 0 -87 -9t-67 -33.5t-49 -68.5t-28 -113.5t-10 -168.5v-336q0 -176 2 -264h-248q2 90 2 270z" />
    <glyph glyph-name="s" unicode="s" horiz-adv-x="1216" 
d="M623 -25q-112 0 -191 7.5t-141.5 26.5t-101 48t-63.5 76.5t-34.5 108t-9.5 145.5l231 6v-28q0 -59 12.5 -94.5t49 -58.5t95 -31.5t157.5 -8.5q149 0 203.5 34t54.5 118q0 48 -21.5 76t-97 55t-223.5 51q-183 29 -276.5 69.5t-130 105t-36.5 179.5q0 194 107.5 275.5
t372.5 81.5q159 0 258 -19.5t155.5 -68t76.5 -117t20 -178.5l-236 -7v31q0 61 -22.5 94.5t-83.5 50.5t-175 17q-131 0 -184 -33t-53 -110q0 -50 21 -78.5t85.5 -51t192.5 -40.5q157 -23 255.5 -53t152 -76t72 -99t18.5 -135q0 -141 -44 -218.5t-154 -114t-312 -36.5z" />
    <glyph glyph-name="t" unicode="t" horiz-adv-x="858" 
d="M217 811v170h-188v211h188q0 46 -1 123t-1 106l246 6q-2 -76 -2 -235h319v-211h-319v-600q0 -58 6 -88.5t27 -51.5t57.5 -27.5t103.5 -6.5q19 0 125 4l2 -211q-76 -8 -168 -8q-125 0 -201 16t-120.5 58t-60 103t-15.5 163q0 41 1 209t1 270z" />
    <glyph glyph-name="u" unicode="u" horiz-adv-x="1378" 
d="M162 735v221q0 148 -2 236h246q0 -38 -1.5 -110t-1.5 -121v-429q0 -103 12.5 -166t45.5 -101.5t83 -52t132 -13.5q84 0 135.5 15t88.5 58t52 119.5t15 200.5v336q0 176 -2 264h247q-2 -90 -2 -270v-666q0 -170 2 -256h-229l-4 199q-54 -120 -155.5 -172t-260.5 -52
q-217 0 -310 95t-93 321q0 18 1 135.5t1 208.5z" />
    <glyph glyph-name="v" unicode="v" horiz-adv-x="1228" 
d="M793 0h-367q-183 554 -416 1192h279l157 -516q24 -81 72.5 -236t65.5 -209h69q68 220 140 445l168 516h258q-79 -207 -215.5 -589t-210.5 -603z" />
    <glyph glyph-name="w" unicode="w" horiz-adv-x="1986" 
d="M864 504l-151 -504h-365q-60 222 -168 604t-170 588h275l131 -526q66 -284 102 -435h53q62 238 117 443l148 518h329l133 -520q49 -189 107 -441h53q63 257 113 443l143 518h262q-209 -635 -374 -1192h-365l-133 506q-21 84 -58.5 237t-48.5 197h-10q-67 -246 -123 -436z
" />
    <glyph glyph-name="x" unicode="x" horiz-adv-x="1267" 
d="M10 0q51 64 123.5 160.5t177 236t148.5 197.5q-73 101 -228 315.5t-204 282.5h317l158 -234q45 -68 131 -200q57 84 129 194l164 240h299q-38 -51 -198 -265.5t-232 -308.5q371 -501 462 -618h-317l-182 262q-120 176 -135 197q-26 -39 -74.5 -110t-61.5 -91l-178 -258
h-299z" />
    <glyph glyph-name="y" unicode="y" horiz-adv-x="1222" 
d="M801 -18q-35 -110 -76 -166.5t-107.5 -82.5t-179.5 -26q-97 0 -202 12l6 207q93 -8 180 -8q73 0 108.5 29.5t65.5 122.5l27 77h-177q-104 261 -438 1045h275l192 -467q117 -290 146 -363h77q9 31 48.5 162.5t62.5 204.5l145 463h263q-227 -633 -416 -1210z" />
    <glyph glyph-name="z" unicode="z" horiz-adv-x="1206" 
d="M1092 207v-207h-981v285l405 397q105 98 311 285v22q-102 -2 -247 -2q-285 0 -449 -2v207h938v-285l-426 -420q-49 -46 -150 -137.5t-141 -128.5v-16h238q338 0 502 2z" />
    </font>
</defs>
</svg>
