<?xml version="1.0" standalone="no"?>
<!DOCTYPE svg PUBLIC "-//W3C//DTD SVG 1.1//EN" "http://www.w3.org/Graphics/SVG/1.1/DTD/svg11.dtd" >
<svg xmlns="http://www.w3.org/2000/svg" xmlns:xlink="http://www.w3.org/1999/xlink" version="1.1">
<metadata>
Created by FontForge 20170731 at Fri Jun 23 10:27:49 2023
 By Aleksey,,,
Copyright (c) 2023 James Hultquist-Todd.
</metadata>
<defs>
<font id="Transducer-Black" horiz-adv-x="1406" >
  <font-face 
    font-family="Transducer Test Black"
    font-weight="900"
    font-stretch="normal"
    units-per-em="2048"
    panose-1="0 0 0 0 0 0 0 0 0 0"
    ascent="1638"
    descent="-410"
    x-height="1208"
    cap-height="1454"
    bbox="-29 -311 2478 1581"
    underline-thickness="102"
    underline-position="-307"
    unicode-range="U+0020-007A"
  />
<missing-glyph horiz-adv-x="1146" 
 />
    <glyph glyph-name=".notdef" horiz-adv-x="1146" 
 />
    <glyph glyph-name=".null" horiz-adv-x="0" 
 />
    <glyph glyph-name="nonmarkingreturn" horiz-adv-x="682" 
 />
    <glyph glyph-name="space" unicode=" " horiz-adv-x="614" 
 />
    <glyph glyph-name="comma" unicode="," horiz-adv-x="667" 
d="M82 475h504v-461l-105 -262h-360l74 174q18 44 32 74q-33 0 -66 -0.5t-54.5 -1t-24.5 -0.5v477z" />
    <glyph glyph-name="hyphen" unicode="-" horiz-adv-x="772" 
d="M49 868h674v-397h-674v397z" />
    <glyph glyph-name="period" unicode="." horiz-adv-x="647" 
d="M82 455h483v-455h-483v455z" />
    <glyph glyph-name="zero" unicode="0" horiz-adv-x="1638" 
d="M819 -29q-149 0 -259.5 15.5t-195.5 51.5t-140 90t-90 137t-49.5 186t-14.5 243v66q0 169 22 286t72 204t138 136.5t212.5 73t304.5 23.5q150 0 260 -15t195.5 -51t140.5 -90t90 -137t49.5 -186t14.5 -244v-66q0 -140 -14.5 -243t-49.5 -186t-90 -137t-140.5 -90
t-196 -51.5t-259.5 -15.5zM819 371q73 0 118.5 9t79.5 30t51 63t24.5 100.5t7.5 149.5v8q0 91 -7.5 149t-24.5 100t-51 62.5t-79.5 29.5t-118.5 9q-60 0 -101.5 -5.5t-74.5 -20.5t-52.5 -39t-33 -64.5t-18 -92.5t-4.5 -128v-8q0 -114 11 -179.5t45 -106t85.5 -53.5
t142.5 -13z" />
    <glyph glyph-name="one" unicode="1" horiz-adv-x="1214" 
d="M645 297v760h-35q-108 -96 -221 -195l-338 -293l-2 2v498q223 185 447 385h604q-2 -72 -2 -250v-895q0 -221 2 -309h-457q2 86 2 297z" />
    <glyph glyph-name="two" unicode="2" horiz-adv-x="1503" 
d="M1430 0h-1358v432q0 78 9.5 135t35 105t66.5 80t106 55.5t152 37t206 19.5q138 7 210 25t92 42.5t20 67.5v2q0 48 -15.5 71t-60 33.5t-135.5 10.5q-117 0 -158 -24t-41 -93v-49l-457 8v21q-2 135 26 224.5t101.5 155t203.5 95t329 29.5q190 0 314.5 -24t203.5 -81
t112 -146t33 -224v-9q0 -134 -29 -220t-103.5 -144t-195 -84.5t-311.5 -34.5q-72 -3 -114.5 -7.5t-75 -12t-47 -22t-21 -33.5t-6.5 -50v-20h639q156 0 269 2v-373z" />
    <glyph glyph-name="three" unicode="3" horiz-adv-x="1466" 
d="M1405 385q0 -94 -16 -157t-58 -114.5t-119 -80t-194 -43.5t-287 -15q-118 0 -204.5 4.5t-158.5 18.5t-119.5 32t-84.5 52t-57 72t-32 99t-15.5 124.5t-2.5 157.5l457 8v-58q0 -46 6.5 -71t29.5 -44t65.5 -25.5t115.5 -6.5q94 0 142 13t61.5 34.5t13.5 63.5v4
q0 40 -17 61.5t-71.5 34t-157.5 12.5h-92v352h86q133 0 180.5 23.5t47.5 77.5v8q0 54 -39 77t-158 23q-123 0 -164 -29t-41 -106v-63l-456 8q-2 111 8.5 189.5t39.5 142.5t76 103.5t123 66.5t175.5 38t238.5 11q158 0 270 -14.5t187 -42t118 -74.5t60.5 -105t17.5 -141v-8
q0 -151 -58 -234.5t-196 -122.5q153 -36 216 -117.5t63 -230.5v-8z" />
    <glyph glyph-name="four" unicode="4" horiz-adv-x="1488" 
d="M53 231v410q210 322 512 813h719q-2 -88 -2 -254v-598q30 0 84 1t78 1v-373h-162q0 -139 2 -231h-461q2 61 2 231h-772zM850 727v330h-55l-322 -471q106 2 211 2h166v139z" />
    <glyph glyph-name="five" unicode="5" horiz-adv-x="1515" 
d="M1382 1454v-348h-858v-246q53 66 149 92.5t285 26.5q250 0 367 -112.5t117 -377.5v-8q0 -115 -21 -197t-68.5 -143t-128.5 -96.5t-194.5 -52.5t-273.5 -17q-139 0 -238 8.5t-177.5 30.5t-127.5 56t-80.5 88t-43.5 122.5t-11 163.5v2l457 9v-2q0 -62 44 -84.5t179 -22.5
q137 0 182 28.5t45 106.5v8q0 86 -45 117t-182 31q-132 0 -177.5 -19.5t-45.5 -66.5h-453q4 109 4 633q0 215 -2 270h1298z" />
    <glyph glyph-name="six" unicode="6" horiz-adv-x="1613" 
d="M809 -29q-176 0 -299 23.5t-210 73t-136.5 135.5t-71.5 201.5t-22 281.5v70q0 141 14.5 245.5t49 187.5t89 137.5t138.5 90.5t192.5 51t255.5 15q145 0 250.5 -9.5t184 -32.5t128 -56t79 -85t40.5 -113t10 -147l-469 -8q0 36 -16 55.5t-65.5 31t-141.5 11.5
q-85 0 -134 -12.5t-82 -51t-45 -104t-13 -178.5q47 99 149.5 138t316.5 39q136 0 234 -25t169 -81.5t105.5 -151.5t34.5 -232v-8q0 -179 -71 -285t-231 -156.5t-433 -50.5zM809 324q114 0 170 13t77 43t21 91v8q0 64 -20 97.5t-72.5 49t-153.5 15.5q-173 0 -236 -33.5
t-63 -120.5v-8q0 -49 10.5 -77.5t42.5 -46.5t83.5 -24.5t140.5 -6.5z" />
    <glyph glyph-name="seven" unicode="7" horiz-adv-x="1282" 
d="M20 1454h1233v-512q-247 -434 -520 -942h-475l-4 2q17 32 545 1004v71h-228q-387 0 -551 -2v379z" />
    <glyph glyph-name="eight" unicode="8" horiz-adv-x="1527" 
d="M764 -25q-148 0 -257 9.5t-187.5 31.5t-128.5 52.5t-79 78.5t-40 104t-11 134v8q0 151 58 231.5t205 116.5q-132 39 -185 121.5t-53 235.5v8q0 83 18 141t62 105t121.5 74.5t194.5 42t282 14.5t282 -14.5t194.5 -42t121.5 -74.5t62 -105t18 -141v-8q0 -150 -63.5 -233.5
t-209.5 -123.5q159 -38 228 -119.5t69 -228.5v-8q0 -94 -16.5 -157t-60 -114.5t-123.5 -80t-202 -43.5t-300 -15zM764 915q93 0 140.5 10t64 31t16.5 62v8q0 39 -15 58.5t-63 30.5t-143 11t-143 -11t-63 -30.5t-15 -58.5v-8q0 -60 45 -81.5t176 -21.5zM764 334
q111 0 161.5 9t67.5 29t17 66v4q0 49 -17 72t-68.5 34t-160.5 11q-105 0 -156.5 -10.5t-70.5 -34.5t-19 -72v-4q0 -46 17 -66t67.5 -29t161.5 -9z" />
    <glyph glyph-name="nine" unicode="9" horiz-adv-x="1613" 
d="M805 1483q176 0 299 -23.5t210 -73t136.5 -135.5t71.5 -201.5t22 -281.5v-70q0 -141 -14.5 -245.5t-49 -187.5t-89 -137.5t-138.5 -90.5t-192.5 -51t-255.5 -15q-145 0 -250.5 9.5t-184 32.5t-128 56t-79 85t-40.5 113t-10 147l469 8q0 -36 16 -55.5t65.5 -31
t141.5 -11.5q85 0 134 12.5t82 51t45 104t13 178.5q-47 -98 -149.5 -137t-317.5 -39q-136 0 -234 25t-168.5 81t-105 151t-34.5 232v8q0 179 71 285t231 156.5t433 50.5zM805 1130q-114 0 -170 -13t-77 -43t-21 -91v-8q0 -64 19.5 -97.5t72 -49t153.5 -15.5q173 0 236 33.5
t63 120.5v8q0 65 -22 96.5t-79.5 45t-174.5 13.5z" />
    <glyph glyph-name="A" unicode="A" horiz-adv-x="1622" 
d="M451 1454h727q296 -984 448 -1454h-506l-49 190h-536l-50 -190h-489q67 202 222 698t233 756zM639 598l-8 -35h342l-10 41q-45 173 -117 453h-92q-7 -27 -49 -196.5t-66 -262.5z" />
    <glyph glyph-name="B" unicode="B" horiz-adv-x="1654" 
d="M117 307v891q0 182 -2 256h921q280 0 400 -82.5t120 -284.5v-2q0 -135 -68 -216.5t-239 -112.5q189 -36 264.5 -119t75.5 -236v-6q0 -216 -125 -305.5t-407 -89.5h-942q2 86 2 307zM915 1112h-340v-213h340q105 0 143 25t38 86v2q0 55 -38 77.5t-143 22.5zM924 571h-349
v-229h349q119 0 160.5 23.5t41.5 87.5v4q0 68 -41 91t-161 23z" />
    <glyph glyph-name="C" unicode="C" horiz-adv-x="1650" 
d="M836 -29q-149 0 -260 15.5t-198 51t-144.5 90t-94.5 137t-53 186.5t-16 243v66q0 140 16 244t53 186.5t94.5 136.5t144.5 89.5t198 51t260 15.5q152 0 259.5 -11t195 -39.5t141 -74t89.5 -119t49 -170t11 -231.5l-457 -9q0 51 -2.5 81.5t-12.5 62t-28.5 48.5t-50.5 31
t-79.5 19.5t-114.5 5.5q-95 0 -148.5 -12.5t-88 -52.5t-45.5 -104t-11 -177v-8q0 -75 4.5 -126.5t18 -92t33 -64t54 -39t77.5 -21t106 -5.5q78 0 131 10t85 27t48.5 50t22 69t5.5 94l457 -9q2 -131 -11.5 -226.5t-49.5 -169t-90.5 -120t-141.5 -76t-196 -41.5t-260 -12z" />
    <glyph glyph-name="D" unicode="D" horiz-adv-x="1693" 
d="M117 309v893q0 178 -2 252h759q217 0 358 -35t230 -118.5t125.5 -212.5t36.5 -328v-66q0 -199 -36.5 -328t-125.5 -212.5t-230 -118.5t-358 -35h-759q2 88 2 309zM874 1057h-299v-660h299q88 0 139 13t83.5 51t43.5 98.5t11 163.5v8q0 103 -11 163t-43.5 98.5t-84 51.5
t-138.5 13z" />
    <glyph glyph-name="E" unicode="E" horiz-adv-x="1415" 
d="M117 307v891q0 182 -2 256h1214v-377q-143 2 -727 2h-27v-166h660v-354q-102 2 -592 2h-68v-186h48q567 0 731 2v-377h-1239q2 86 2 307z" />
    <glyph glyph-name="F" unicode="F" horiz-adv-x="1370" 
d="M117 307v891q0 182 -2 256h1202v-389q-143 2 -592 2h-150v-248h656v-370q-102 2 -526 2h-130v-142q0 -174 3 -309h-463q2 88 2 307z" />
    <glyph glyph-name="G" unicode="G" horiz-adv-x="1652" 
d="M836 -29q-149 0 -260 15.5t-198 51t-144.5 90t-94.5 137t-53 186.5t-16 243v66q0 140 16 244t53 186.5t94.5 136.5t144.5 89.5t198 51t260 15.5q152 0 259.5 -9t195 -32.5t141 -61.5t89.5 -99t49 -141t11 -192l-455 -8h-2q2 42 -5 64.5t-34.5 41t-83 25t-151.5 6.5
q-100 0 -156.5 -12.5t-92.5 -53t-47 -104t-11 -176.5v-8q0 -79 4.5 -133t18 -97t33 -67.5t54 -40.5t77.5 -21.5t106 -5.5q140 0 203.5 9t84.5 30t21 68v14h-445v322h887q-2 -70 -2 -219q0 -98 -8 -174t-27 -138.5t-47 -107t-73 -78.5t-99 -55t-131 -34.5t-163 -18.5t-201 -5
z" />
    <glyph glyph-name="H" unicode="H" horiz-adv-x="1699" 
d="M115 0q2 88 2 307v891q0 180 -2 256h463q-3 -114 -3 -252v-256h549v252q0 180 -2 256h463q-2 -76 -2 -252v-893q0 -219 2 -309h-463q2 88 2 307v242h-549v-240q0 -174 3 -309h-463z" />
    <glyph glyph-name="I" unicode="I" horiz-adv-x="712" 
d="M117 307v891q0 180 -2 256h483q-2 -76 -2 -252v-893q0 -219 2 -309h-483q2 88 2 307z" />
    <glyph glyph-name="J" unicode="J" horiz-adv-x="1466" 
d="M1389 1454q-3 -105 -3 -256v-145q0 -51 1.5 -187t1.5 -225q0 -130 -12.5 -225.5t-43.5 -172.5t-79.5 -127t-124 -83.5t-174 -47.5t-232.5 -14t-232 14.5t-174 48.5t-124.5 86t-79.5 133t-43.5 182.5t-12.5 240.5v26l461 5v-62q0 -112 19 -169t61.5 -79t124.5 -22
t124.5 22t61.5 79t19 169v559q0 184 -2 250h463z" />
    <glyph glyph-name="K" unicode="K" horiz-adv-x="1591" 
d="M117 307v891q0 180 -2 256h463q-3 -114 -3 -252v-268h125q59 102 156 260l162 260h559l2 -2q-84 -113 -258 -343t-258 -343q331 -468 551 -762l-2 -4h-557l-221 348q-108 178 -125 207h-134v-246q0 -174 3 -309h-463q2 88 2 307z" />
    <glyph glyph-name="L" unicode="L" horiz-adv-x="1370" 
d="M1303 0h-1188q2 86 2 307v895q0 176 -2 252h463q-3 -114 -3 -252v-790h252q312 0 476 2v-414z" />
    <glyph glyph-name="M" unicode="M" horiz-adv-x="2086" 
d="M115 0q2 88 2 307v897q0 176 -2 250h745l113 -518q18 -81 48 -232.5t40 -197.5q47 263 84 430l110 518h717q-2 -74 -2 -248v-907q0 -213 2 -299h-463q2 162 2 399q0 38 5 633q-7 -27 -140 -543l-127 -489h-428l-129 496q-110 425 -139 542q0 -119 1 -350.5t1 -288.5
q0 -235 2 -399h-442z" />
    <glyph glyph-name="N" unicode="N" horiz-adv-x="1699" 
d="M115 0q2 86 2 299v905q0 176 -2 250h690l137 -383q158 -444 234 -674q-1 123 -4 348t-3 269q0 278 -2 440h418q-2 -74 -2 -252v-893q0 -221 2 -309h-690l-168 465q-72 201 -203 598q1 -91 2.5 -236.5t2.5 -248t1 -138.5q0 -276 2 -440h-417z" />
    <glyph glyph-name="O" unicode="O" horiz-adv-x="1679" 
d="M840 -29q-225 0 -369.5 35.5t-235.5 122.5t-128 221.5t-37 343.5v66q0 140 16 244t53.5 186.5t95 136.5t145 89.5t199 51t261.5 15.5q226 0 370 -35t235.5 -122t128 -221.5t36.5 -344.5v-66q0 -139 -16 -243t-53 -186.5t-94.5 -137t-145 -90t-199.5 -51t-262 -15.5z
M840 375q65 0 108.5 5.5t78.5 21t55 39t33 64.5t17.5 91.5t4.5 126.5v8q0 76 -4.5 126.5t-17.5 91.5t-33 64t-55 38.5t-78.5 20.5t-108.5 5q-97 0 -151 -12.5t-89 -52.5t-46 -104t-11 -177v-8q0 -75 4.5 -126.5t18 -92t33.5 -64t55 -39t78.5 -21t107.5 -5.5z" />
    <glyph glyph-name="P" unicode="P" horiz-adv-x="1626" 
d="M575 299q0 -167 3 -299h-463q2 86 2 299v909q0 174 -2 246h860q165 0 275.5 -27.5t184 -93t106 -170.5t32.5 -262v-6q0 -157 -32.5 -262t-106 -171.5t-184.5 -95t-275 -28.5h-400v-39zM872 1073h-297v-352h297q131 0 182.5 39t51.5 137v4q0 98 -51.5 135t-182.5 37z" />
    <glyph glyph-name="Q" unicode="Q" horiz-adv-x="1699" 
d="M840 -29q-225 0 -369.5 35.5t-235.5 122.5t-128 221.5t-37 343.5v66q0 140 16 244t53.5 186.5t95 136.5t145 89.5t199 51t261.5 15.5q226 0 370 -35t235.5 -122t128 -221.5t36.5 -344.5v-66q0 -164 -23 -276l111 -49v-396l-2 -2l-199 84q-26 10 -90 41
q-89 -66 -226.5 -95.5t-340.5 -29.5zM840 375q132 0 190 26l-149 70v367l4 2l131 -64q84 -41 121 -61v16q0 76 -4.5 126.5t-17.5 91.5t-33 64t-55 38.5t-78.5 20.5t-108.5 5q-97 0 -151 -12.5t-89 -52.5t-46 -104t-11 -177v-8q0 -75 4.5 -126.5t18 -92t33.5 -64t55 -39
t78.5 -21t107.5 -5.5z" />
    <glyph glyph-name="R" unicode="R" horiz-adv-x="1636" 
d="M117 307v891q0 182 -2 256h880q158 0 267 -25.5t185 -85.5t111 -159.5t35 -247.5v-6q0 -189 -53 -301t-174 -170q37 -63 92 -168q62 -122 158 -291h-488q-53 113 -94 190l-94 177h-365v-58q0 -177 3 -309h-463q2 86 2 307zM893 1073h-318v-330h310q137 0 189 36.5
t52 131.5v4q0 88 -51.5 123t-181.5 35z" />
    <glyph glyph-name="S" unicode="S" horiz-adv-x="1509" 
d="M782 -29q-158 0 -267.5 8.5t-195 32t-136 58.5t-83 93t-44 130t-11.5 176l469 8v-35q0 -42 18.5 -61t71 -27t168.5 -8q106 0 157.5 9t67 26.5t15.5 54.5q0 34 -23 53t-108 38t-254 36q-179 18 -289 49t-174.5 87.5t-87.5 132t-23 194.5q0 95 18 164.5t63.5 127
t122.5 92.5t194.5 54t279.5 19q133 0 234.5 -10.5t175 -28t124 -50t81 -68t47.5 -91t22.5 -109t5.5 -131.5l-458 -8v33q0 37 -15 55t-64 27.5t-149 9.5q-91 0 -138 -9t-61 -24.5t-14 -44.5q0 -22 10.5 -34t50.5 -24.5t110.5 -22t199.5 -23.5q142 -15 241 -40t165 -61.5
t102.5 -91.5t51.5 -121t15 -159q0 -106 -17 -179.5t-61.5 -135t-122 -97.5t-197 -55t-288.5 -19z" />
    <glyph glyph-name="T" unicode="T" horiz-adv-x="1458" 
d="M500 307v735h-119q-209 0 -373 -2v414h1442v-414q-123 2 -311 2h-181v-733q0 -174 3 -309h-463q2 88 2 307z" />
    <glyph glyph-name="U" unicode="U" horiz-adv-x="1650" 
d="M1552 1454q-2 -68 -2 -252v-149q0 -41 1 -182t1 -230q0 -134 -13.5 -231t-48 -174t-87 -126t-135.5 -81t-189.5 -45t-253.5 -13q-146 0 -252.5 13t-189.5 44.5t-136 80.5t-87 126t-48 174t-14 232q0 90 1 231.5t1 182.5v149q0 182 -2 250h463q-2 -63 -2 -250v-538
q0 -96 12 -152t45 -87.5t80 -41.5t129 -10q66 0 107 6.5t75 23.5t51 50t25.5 83.5t8.5 127.5v542q0 185 -2 246h462z" />
    <glyph glyph-name="V" unicode="V" horiz-adv-x="1622" 
d="M1171 0h-727q-296 984 -448 1454h506l157 -604q45 -173 117 -453h92q7 27 49 196.5t66 262.5l154 598h489q-67 -202 -222 -698t-233 -756z" />
    <glyph glyph-name="W" unicode="W" horiz-adv-x="2473" 
d="M1163 631l-123 -631h-645q-68 267 -203 761t-196 693h508l141 -690q16 -74 42.5 -207t31.5 -160h37q12 73 71 396l123 661h590l121 -610q16 -81 44.5 -232.5t41.5 -214.5h33q13 66 38.5 200.5t32.5 168.5l136 688h491q-69 -233 -207 -727.5t-198 -726.5h-646l-108 623
q-13 75 -39 229.5t-35 208.5q-2 -13 -82 -430z" />
    <glyph glyph-name="X" unicode="X" horiz-adv-x="1619" 
d="M-4 0q127 203 430 725q-319 565 -420 729h563l131 -266q51 -107 136 -277q15 35 110 281l107 262h549q-159 -263 -414 -717q320 -553 436 -737h-561l-137 279q-75 151 -138 284q-49 -108 -124 -284l-119 -279h-549z" />
    <glyph glyph-name="Y" unicode="Y" horiz-adv-x="1613" 
d="M584 297v133q-321 570 -592 1024h520l178 -344q67 -129 137 -268q58 126 125 264l166 348h504q-232 -389 -580 -1010v-147q0 -221 2 -297h-462q2 74 2 297z" />
    <glyph glyph-name="Z" unicode="Z" horiz-adv-x="1515" 
d="M776 387q518 0 682 2v-389h-1401v549l516 317q136 85 349 203h-228q-464 0 -628 -2v387h1378v-549l-518 -301q-209 -121 -385 -217h235z" />
    <glyph glyph-name="a" unicode="a" horiz-adv-x="1368" 
d="M457 -25q-228 0 -318 85t-90 292q0 206 94 295.5t322 89.5q160 0 235 -26.5t121 -104.5v123q0 88 -30 121t-121 33q-69 0 -103 -10t-42.5 -27t-8.5 -51l-399 8q-2 166 49.5 257t175 132t348.5 41q221 0 350 -43t181.5 -126.5t52.5 -223.5q0 -70 -1 -194t-1 -257
q0 -227 2 -389h-424l-4 190q-36 -80 -78.5 -124.5t-117 -67.5t-193.5 -23zM676 279q92 0 126 20.5t34 77.5v8q0 56 -31.5 78t-108.5 22q-114 0 -148 -21t-34 -83q0 -60 33 -81t129 -21z" />
    <glyph glyph-name="b" unicode="b" 
d="M104 307v899q0 244 -2 326h457q-2 -86 -2 -508q122 209 375 209q117 0 192.5 -26t128 -93.5t75 -183t22.5 -295.5v-62q0 -179 -23.5 -295.5t-78 -183.5t-131 -93t-193.5 -26q-265 0 -381 234l-4 -209h-437q2 86 2 307zM555 588q0 -121 33.5 -159t124.5 -38q75 0 112 16.5
t53.5 61.5t16.5 135v2q0 131 -35 171t-139 40q-97 0 -131.5 -37.5t-34.5 -158.5v-33z" />
    <glyph glyph-name="c" unicode="c" horiz-adv-x="1331" 
d="M674 -25q-118 0 -206 12t-158.5 40.5t-117 73t-77.5 112t-44.5 155t-13.5 205.5v62q0 118 13.5 205.5t44.5 155t77.5 112t117 73t158.5 40.5t206 12q178 0 291.5 -25t188.5 -89t105.5 -167.5t30.5 -265.5l-446 -8q-3 91 -36.5 125.5t-131.5 34.5q-66 0 -99 -17t-49 -66.5
t-16 -148.5v-2q0 -97 17 -147t51 -67t100 -17q98 0 133 34.5t35 122.5l446 -8q0 -155 -31.5 -257.5t-106 -168t-190.5 -93.5t-292 -28z" />
    <glyph glyph-name="d" unicode="d" 
d="M475 -25q-117 0 -192.5 26t-128 93.5t-75 183t-22.5 295.5v62q0 179 23.5 295.5t78 183.5t131 93t193.5 26q248 0 367 -205q0 332 -4 504h459q-2 -82 -2 -328v-901q0 -215 2 -303h-437l-4 211q-121 -236 -389 -236zM686 391q97 0 131.5 38t34.5 159v33q0 83 -16 125
t-48 56.5t-94 14.5q-75 0 -112 -16.5t-53.5 -61.5t-16.5 -135v-2q0 -131 35 -171t139 -40z" />
    <glyph glyph-name="e" unicode="e" horiz-adv-x="1347" 
d="M674 -25q-171 0 -284 28t-189.5 97.5t-110 183.5t-33.5 289v62q0 175 33.5 289t110 183.5t189.5 97.5t284 28t283.5 -28t189.5 -97.5t110 -183.5t33 -289v-105h-776q7 -115 41.5 -151.5t120.5 -36.5q93 0 128.5 25.5t35.5 91.5l450 -8q0 -181 -57.5 -282.5t-190 -147.5
t-368.5 -46zM676 928q-82 0 -116.5 -29t-43.5 -121h313q-4 95 -34 122.5t-119 27.5z" />
    <glyph glyph-name="f" unicode="f" horiz-adv-x="894" 
d="M158 594v98h-166l8 371h156v55q0 115 21.5 190.5t72.5 122.5t125 68.5t188 28.5q210 13 289 16l16 -323q-60 0 -139 -9q-77 -7 -99 -34.5t-22 -114.5h240v-371h-240v-397q0 -193 2 -295h-454q2 162 2 594z" />
    <glyph glyph-name="g" unicode="g" 
d="M496 180q-81 0 -141 9t-111 32t-84.5 61t-57.5 96.5t-34.5 138t-10.5 185.5v9q0 128 15.5 217.5t46.5 149.5t85.5 93.5t123 47.5t168.5 14q247 0 368 -236l4 211h439q-2 -55 -2 -274v-320q0 -134 1 -290t1 -226q0 -223 -147 -316t-501 -93q-126 0 -210 6.5t-150.5 25.5
t-104 46.5t-63 77.5t-35.5 109.5t-14 151.5l393 9q0 -26 4.5 -39.5t23 -25t55.5 -15.5t101 -4q88 0 130.5 14.5t58.5 47t16 100.5v215q-53 -116 -141.5 -172t-226.5 -56zM680 575q103 0 137.5 27t34.5 100v17q0 66 -36 92.5t-144 26.5q-93 0 -126.5 -28t-33.5 -101v-2
q0 -74 35 -103t133 -29z" />
    <glyph glyph-name="h" unicode="h" horiz-adv-x="1400" 
d="M109 303v895q0 205 -3 334h457q0 -34 -4.5 -245t-7.5 -281q59 117 151 172t248 55q196 0 276.5 -87.5t80.5 -275.5q0 -118 -2 -186v-410q0 -159 2 -274h-455q2 100 2 270v389q0 93 -30 125.5t-117 32.5q-89 0 -118.5 -37.5t-29.5 -156.5v-320q0 -211 2 -303h-455
q3 132 3 303z" />
    <glyph glyph-name="i" unicode="i" horiz-adv-x="667" 
d="M106 1581h455v-252h-455v252zM109 305v578q0 199 -3 325h455q-2 -82 -2 -329v-572q0 -219 2 -307h-455q3 132 3 305z" />
    <glyph glyph-name="j" unicode="j" horiz-adv-x="753" 
d="M193 1581h454v-252h-454v252zM645 633q0 -99 1 -274t1 -230q0 -116 -18.5 -190.5t-65.5 -122.5t-118.5 -70t-184.5 -29q-153 -10 -285 -12l-4 399q61 0 123 7q63 7 82 36t19 115v721q0 151 -2 225h454q-2 -88 -2 -231v-344z" />
    <glyph glyph-name="k" unicode="k" horiz-adv-x="1335" 
d="M109 305v901q0 200 -3 326h455q-2 -82 -2 -330v-387h49q49 96 92 168l131 225h519l2 -4q-151 -208 -379 -557q326 -532 399 -643l-2 -4h-518l-145 272q-44 79 -95 179h-53v-144q0 -221 2 -307h-455q3 129 3 305z" />
    <glyph glyph-name="l" unicode="l" horiz-adv-x="667" 
d="M109 305v901q0 200 -3 326h455q-2 -82 -2 -330v-895q0 -219 2 -307h-455q3 132 3 305z" />
    <glyph glyph-name="m" unicode="m" horiz-adv-x="2121" 
d="M104 291v663q0 158 -2 254h437l4 -211q56 116 147 176t240 60q155 0 239.5 -54.5t112.5 -168.5q57 111 147.5 167t235.5 56q201 0 282 -87.5t81 -275.5q0 -50 -1.5 -184.5t-1.5 -234.5v-140q0 -141 3 -311h-455q2 94 2 305v354q0 92 -28.5 125t-106.5 33
q-90 0 -120 -37.5t-30 -156.5v-316q0 -196 2 -307h-454q2 94 2 305v354q0 92 -28.5 125t-106.5 33q-90 0 -120 -37.5t-30 -156.5v-355q0 -162 2 -268h-455q2 109 2 291z" />
    <glyph glyph-name="n" unicode="n" horiz-adv-x="1396" 
d="M104 291v663q0 158 -2 254h437l4 -213q57 123 150.5 180.5t252.5 57.5q196 0 276.5 -87.5t80.5 -275.5q0 -21 -1.5 -108t-1.5 -160v-328q0 -102 3 -274h-455q2 100 2 270v389q0 93 -30.5 125.5t-117.5 32.5q-89 0 -118 -37.5t-29 -156.5v-355q0 -162 2 -268h-455
q2 109 2 291z" />
    <glyph glyph-name="o" unicode="o" horiz-adv-x="1363" 
d="M682 -25q-120 0 -209.5 12t-161 40.5t-118.5 73t-78 112t-44.5 155t-13.5 205.5v62q0 118 13.5 205.5t44.5 155t78 112t118.5 73t161 40.5t209.5 12t209.5 -12t161 -40.5t118.5 -73t78 -112t44.5 -155t13.5 -205.5v-62q0 -118 -13.5 -205.5t-44.5 -155t-78 -112
t-118.5 -73t-161 -40.5t-209.5 -12zM682 371q69 0 103.5 17.5t50.5 67t16 148.5v2q0 99 -16 148.5t-50.5 66.5t-103.5 17t-103.5 -17t-50.5 -66.5t-16 -148.5v-2q0 -99 16 -148.5t50.5 -67t103.5 -17.5z" />
    <glyph glyph-name="p" unicode="p" 
d="M104 -2v881q0 227 -2 329h437l4 -211q121 236 389 236q117 0 192.5 -26t128 -93.5t75 -183t22.5 -295.5v-62q0 -179 -23.5 -295.5t-78 -183.5t-131 -93t-193.5 -26q-248 0 -367 205q0 -385 2 -467h-457q2 61 2 285zM555 588q0 -121 33.5 -159t124.5 -38q75 0 112 16.5
t53.5 61.5t16.5 135v2q0 131 -35 171t-139 40q-97 0 -131.5 -37.5t-34.5 -158.5v-33z" />
    <glyph glyph-name="q" unicode="q" 
d="M483 -25q-117 0 -193.5 26t-131 93t-78 183.5t-23.5 295.5v62q0 180 22.5 295.5t75 183t128 93.5t192.5 26q268 0 389 -236l4 211h437q-2 -102 -2 -329v-881q0 -224 2 -285h-457q2 90 2 467q-119 -205 -367 -205zM694 391q91 0 124.5 38t33.5 159v33q0 121 -34.5 158.5
t-131.5 37.5q-104 0 -139 -40t-35 -171v-2q0 -90 16.5 -135t53.5 -61.5t112 -16.5z" />
    <glyph glyph-name="r" unicode="r" horiz-adv-x="1271" 
d="M104 291v663q0 158 -2 254h437l4 -209q53 123 135.5 178.5t232.5 55.5q172 0 244 -78t72 -270q0 -181 -2 -283l-437 -6v102q0 70 -22 94.5t-84 24.5q-50 0 -75 -14.5t-38.5 -63.5t-13.5 -147v-324q0 -162 2 -268h-455q2 109 2 291z" />
    <glyph glyph-name="s" unicode="s" horiz-adv-x="1212" 
d="M618 -25q-146 0 -244 12t-169 38.5t-109.5 75.5t-55.5 116.5t-17 169.5l432 8v-22q0 -52 32.5 -72t130.5 -20q68 0 91.5 17.5t23.5 55.5q0 23 -12 35.5t-65 28t-160 31.5q-97 15 -164 30.5t-119.5 38.5t-83 50t-50.5 68t-27 89t-7 117q0 140 49.5 223t171.5 125.5
t332 42.5q141 0 237 -15t156.5 -42.5t93.5 -77.5t44.5 -108.5t11.5 -147.5l-436 -8v20q0 44 -24 60t-87 16q-62 0 -84.5 -14.5t-22.5 -57.5q0 -41 38.5 -55t193.5 -35q151 -19 242 -46.5t142 -74.5t68 -105.5t17 -152.5q0 -118 -25.5 -193.5t-90.5 -126.5t-174 -72.5
t-280 -21.5z" />
    <glyph glyph-name="t" unicode="t" horiz-adv-x="985" 
d="M940 0q-169 -8 -309 -8q-126 0 -210.5 16.5t-145 57.5t-88 111.5t-27.5 176.5q0 78 1 235.5t1 248.5h-166v370h166q0 158 -2 224l454 8q-2 -53 -2 -232h326v-370h-326v-312q0 -101 31 -129t143 -28q82 0 152 4z" />
    <glyph glyph-name="u" unicode="u" horiz-adv-x="1378" 
d="M88 729v205q0 161 -2 274h455q-2 -98 -2 -270v-389q0 -92 30 -125t115 -33q83 0 111 38t28 157v354q0 162 -2 268h455q-2 -109 -2 -290v-664q0 -158 2 -254h-436l-4 213q-57 -123 -149 -180.5t-247 -57.5q-194 0 -274 87.5t-80 275.5q0 28 1 192t1 199z" />
    <glyph glyph-name="v" unicode="v" horiz-adv-x="1384" 
d="M1024 0h-670q-60 225 -174 614.5t-180 593.5h500l98 -471q25 -119 74 -340h63q39 175 70 334l96 477h483q-217 -689 -360 -1208z" />
    <glyph glyph-name="w" unicode="w" horiz-adv-x="2121" 
d="M999 336l-61 -336h-664q-49 235 -136.5 622.5t-137.5 585.5h500l73 -499q4 -30 20 -142t23 -170h41q44 290 50 334l71 477h582l86 -481q17 -93 57 -330h39q14 146 37 328l59 483h484q-54 -215 -144 -605t-135 -603h-663l-50 336q-8 61 -29 201.5t-30 210.5
q-11 -65 -72 -412z" />
    <glyph glyph-name="x" unicode="x" horiz-adv-x="1431" 
d="M0 0q89 120 408 567q-283 454 -404 641h531l118 -207q5 -9 30.5 -54t39.5 -70q33 75 63 133l101 198h524q-42 -59 -112 -160t-159 -229.5t-130 -187.5q332 -502 422 -631h-531l-119 207q-24 43 -82 147q-13 -25 -36.5 -75t-34.5 -72l-105 -207h-524z" />
    <glyph glyph-name="y" unicode="y" horiz-adv-x="1363" 
d="M1034 74q-33 -114 -70.5 -183.5t-97 -115t-140 -63t-202.5 -17.5q-175 0 -311 18l4 363q143 -10 246 -10q51 0 81 5.5t52 24.5t34.5 47t26.5 80l7 21h-332q-152 464 -342 964h499l119 -381q9 -31 31 -100t33 -106h92q7 35 22.5 104t22.5 104l82 379h483
q-98 -303 -340 -1134z" />
    <glyph glyph-name="z" unicode="z" horiz-adv-x="1177" 
d="M1124 344v-344h-1075v477l313 213q40 27 135 88.5t134 87.5h-70q-327 0 -491 -2v344h1032v-477l-332 -221q-89 -60 -260 -168h106q344 0 508 2z" />
    </font>
</defs>
</svg>
